<svg xmlns="http://www.w3.org/2000/svg" xmlns:xlink="http://www.w3.org/1999/xlink" width="1366" zoomAndPan="magnify" viewBox="0 0 1024.5 576" height="768" preserveAspectRatio="xMidYMid meet" version="1.0"><defs><clipPath id="baed615ec4"><path d="M 0 0.140625 L 428 0.140625 L 428 575.859375 L 0 575.859375 Z M 0 0.140625 " clip-rule="nonzero"/></clipPath><clipPath id="58b4a1a031"><path d="M 478 0.140625 L 772 0.140625 L 772 503 L 478 503 Z M 478 0.140625 " clip-rule="nonzero"/></clipPath><clipPath id="f6de3189b9"><path d="M 266 476 L 504 476 L 504 575.859375 L 266 575.859375 Z M 266 476 " clip-rule="nonzero"/></clipPath></defs><g clip-path="url(#baed615ec4)"><path stroke-linecap="butt" transform="matrix(0.359818, -0.657634, 0.657634, 0.359818, -1.112472, 576.029921)" fill="none" stroke-linejoin="miter" d="M 0.916472 1.190189 C 476.309988 368.189449 768.123422 368.189929 876.354274 1.187059 " stroke="#ffffff" stroke-width="3" stroke-opacity="1" stroke-miterlimit="4"/></g><g clip-path="url(#58b4a1a031)"><path stroke-linecap="butt" transform="matrix(0.206343, -0.720676, 0.720676, 0.206343, 490.053692, 490.09261)" fill="none" stroke-linejoin="miter" d="M 1.249814 0.830573 C 235.362603 353.024216 461.642206 353.024564 680.098644 0.828748 " stroke="#ffffff" stroke-width="3" stroke-opacity="1" stroke-miterlimit="4"/></g><g clip-path="url(#f6de3189b9)"><path stroke-linecap="butt" transform="matrix(0.693927, -0.283577, 0.283577, 0.693927, 276.864915, 570.420859)" fill="none" stroke-linejoin="miter" d="M 0.220089 7.927239 C 57.255917 -0.642873 158.918484 -0.641349 305.216555 7.924133 " stroke="#ffffff" stroke-width="3" stroke-opacity="1" stroke-miterlimit="4"/></g></svg>